<svg width="12" height="14" viewBox="0 0 12 14" fill="none" xmlns="http://www.w3.org/2000/svg">
<path d="M3.83646 6.00774V11.1595C3.83646 11.3886 3.69201 11.5923 3.47641 11.6678C3.17134 11.775 2.8032 11.8316 2.41135 11.8316C1.2843 11.8316 0.0720829 11.3692 0.0720829 10.3537V3.76173C0.0467498 3.30897 0.204677 2.50909 0.963051 2.07627C1.31502 1.87523 3.16325 0.68673 4.09141 0.0862837C4.25688 -0.0209774 4.46817 -0.0285234 4.64173 0.0652627C4.81529 0.160127 4.92309 0.34177 4.92309 0.539044V1.31952C4.92309 1.61705 4.68162 1.85852 4.38409 1.85852C4.15232 1.85852 3.9545 1.71245 3.8785 1.50655C3.03982 2.04555 1.80443 2.8368 1.49774 3.01198C1.22177 3.16991 1.16194 3.45989 1.15008 3.61728C1.15008 3.79407 1.18835 3.93313 1.25735 4.00913C1.44869 4.21772 2.08633 4.08782 2.78218 3.6701C3.45054 3.26908 6.74707 1.07427 6.77994 1.05217C6.9465 0.941678 7.15886 0.931437 7.33296 1.02576C7.50867 1.11955 7.61809 1.30227 7.61809 1.50116V1.56261C7.61809 1.74263 7.52808 1.9108 7.37877 2.01105C7.37877 2.01105 5.09018 3.53858 4.88751 3.66848C4.11189 4.1676 3.83646 4.7799 3.83646 6.00774ZM11.9301 3.40653V10.4038C11.9301 10.5887 11.8347 10.7612 11.6778 10.8598C11.6778 10.8598 8.53547 13.3004 7.89783 13.688C7.56257 13.8922 7.13568 14 6.66406 14C5.54348 14 4.38409 13.3937 4.38409 12.3798V5.84928V5.69135C4.38409 5.68919 4.3857 5.68704 4.3857 5.68434C4.39648 5.28979 4.48865 4.72654 5.22223 4.18538C5.66206 3.8609 8.2816 2.07466 8.39263 1.9992C8.55811 1.88708 8.77209 1.87523 8.94781 1.96793C9.1246 2.06118 9.23509 2.24444 9.23509 2.44441V3.22488C9.23509 3.52241 8.99416 3.76388 8.69609 3.76388C8.47348 3.76388 8.28214 3.62913 8.20021 3.43617C7.36422 4.00805 6.13692 4.85051 5.86203 5.05263C5.51491 5.3092 5.46856 5.47845 5.46263 5.69566C5.46371 5.85682 5.50736 5.97972 5.59576 6.06057C5.87065 6.31228 6.6107 6.20664 7.34051 5.76897C7.88058 5.44449 10.208 3.64746 11.0585 2.98233C11.2218 2.85621 11.4418 2.83303 11.6272 2.92304C11.8126 3.01306 11.9301 3.20009 11.9301 3.40653ZM10.8521 5.80831L8.15709 7.8991V8.9771L10.8521 6.88631V5.80831Z" fill="#DCB102"/>
</svg>
