<svg width="14" height="16" viewBox="0 0 14 16" fill="none" xmlns="http://www.w3.org/2000/svg">
<path d="M1.53857 2.5068C1.53857 2.75246 1.73773 2.95159 1.98336 2.95159H10.5067V14.0009C10.5067 14.2464 10.7059 14.4456 10.9515 14.4456C11.1971 14.4456 11.3963 14.2464 11.3963 14.0009V2.5068C11.3963 2.26113 11.1971 2.06201 10.9515 2.06201H1.98336C1.73773 2.06201 1.53857 2.26117 1.53857 2.5068Z" fill="#DCB102"/>
<path d="M13.0565 0H1.75947C1.61219 0 1.47452 0.072874 1.39168 0.194639L0.0781045 2.1258C0.0279326 2.19956 0.00110301 2.28671 0.00110301 2.37591L0 14.5552C0 14.5659 0.000391349 14.5764 0.00110301 14.5868V15.5552C0.00110301 15.8009 0.200261 16 0.445889 16H11.0669C11.1206 16 11.1721 15.9904 11.2198 15.973C11.2737 15.9579 11.3247 15.9326 11.37 15.898L13.3268 14.4011C13.4369 14.317 13.5013 14.1864 13.5013 14.0479V0.444787C13.5013 0.199122 13.3022 0 13.0565 0ZM12.6117 13.8281L10.9354 15.1104H0.89064V14.5553C0.89064 14.5448 0.890249 14.5342 0.889537 14.5238L0.89064 2.51294L1.99485 0.889575H12.6117V13.8281Z" fill="#DCB102"/>
<rect y="2" width="12" height="14" rx="1" fill="#DCB102"/>
<path d="M6.77487 5.3096C6.7173 5.12442 6.55877 5 6.38048 5H5.61003C5.43149 5 5.27296 5.12469 5.21545 5.31021L3.02202 12.3956C2.97894 12.5349 2.99987 12.6895 3.07781 12.809C3.15582 12.9285 3.28244 13 3.4166 13H3.88987C4.07013 13 4.22909 12.8738 4.28556 12.6861L4.9052 10.6265H7.0456L7.68402 12.6898C7.74147 12.8754 7.90006 13 8.0786 13H8.58342C8.71758 13 8.84426 12.9285 8.92233 12.8088C9.00034 12.6891 9.02108 12.5344 8.97775 12.3949L6.77487 5.3096ZM5.22766 9.41118L5.8087 7.52698L5.81104 7.51916C5.86419 7.33506 5.91685 7.14133 5.96994 6.93405C6.02002 7.12765 6.07605 7.32934 6.14117 7.53897L6.72148 9.41111L5.22766 9.41118Z" fill="white"/>
</svg>
