<svg width="135" height="20" viewBox="0 0 135 20" fill="none" xmlns="http://www.w3.org/2000/svg">
<path d="M4.71801 9.99694C4.71801 14.3486 6.03905 16.1026 9.15849 16.1026C10.2884 16.1069 11.4121 15.9346 12.4888 15.5919C13.3019 16.4911 13.7425 17.6658 13.7211 18.8779C13.7211 18.8779 12.1447 19.988 8.23709 19.988C2.63098 19.988 0 16.5022 0 9.99694C0 3.49163 2.63098 0.00585938 8.23709 0.00585938C12.0004 0.00585938 13.3214 0.960562 13.3214 0.960562C13.3324 2.16906 12.8749 3.33484 12.0448 4.21321C11.0535 3.884 10.0142 3.72267 8.96977 3.73586C5.85033 3.73586 4.71801 5.64527 4.71801 9.99694Z" fill="#DCB102"/>
<path d="M34.1695 0.373055C35.0211 0.378596 35.8696 0.475359 36.7006 0.661686V19.3228C35.9841 19.5535 35.2323 19.655 34.4803 19.6225C33.7292 19.6377 32.9803 19.5366 32.2601 19.3228V12.9618C32.2294 10.7367 32.3407 8.512 32.5931 6.30109H32.4488C32.0721 7.43096 31.6158 8.53273 31.0834 9.59815L27.975 15.7815C27.6205 15.9141 27.2431 15.9744 26.8649 15.9591C26.4867 15.975 26.1092 15.9146 25.7548 15.7815L22.7242 9.85348C22.1045 8.74497 21.5879 7.58186 21.1811 6.3788H21.0923C21.3205 8.59141 21.4205 10.8154 21.392 13.0395V19.3672C20.6993 19.5675 19.9817 19.6684 19.2606 19.6669C18.5545 19.6623 17.8524 19.5615 17.1736 19.3672V0.661686C18.0237 0.477381 18.8904 0.380665 19.7602 0.373055C20.5836 0.356961 21.4054 0.45408 22.2024 0.661686L25.7548 7.57773C26.1972 8.46074 26.5684 9.37765 26.8649 10.3197H27.0092C27.2796 9.36845 27.6517 8.44913 28.1194 7.57773L31.5718 0.661686C32.4236 0.465233 33.2954 0.368374 34.1695 0.373055Z" fill="#DCB102"/>
<path d="M45.404 11.419C45.7371 15.1601 47.3801 16.1037 49.9444 16.1037C51.4174 16.1042 52.8751 15.8058 54.2295 15.2267C55.0276 16.125 55.4801 17.278 55.5061 18.4793C53.6184 19.5604 51.4628 20.0839 49.2895 19.9891C43.317 19.9891 40.686 16.5033 40.686 9.88702C40.686 2.97098 44.0164 0.00695801 49.0341 0.00695801C53.5634 0.00695801 56.5274 2.34931 56.5274 7.57797C56.5462 8.86959 56.4121 10.1589 56.1278 11.419H45.404ZM49.0341 3.64815C47.158 3.64815 45.7704 4.89148 45.4484 8.29955H51.8871C51.8871 7.88881 51.9537 7.48916 51.9537 7.08952C51.9537 5.12461 51.3321 3.59264 49.0341 3.59264V3.64815Z" fill="#DCB102"/>
<path d="M74.0451 0.373291C74.287 0.991502 74.4003 1.65253 74.3781 2.316C74.3865 2.9671 74.2618 3.61306 74.0118 4.2143H68.8275V19.323C68.0792 19.5477 67.2993 19.6489 66.5185 19.6228C65.7406 19.6642 64.9617 19.5626 64.2205 19.323V4.2143H58.9697C58.6982 3.61872 58.5617 2.97049 58.57 2.316C58.5584 1.64689 58.6949 0.983496 58.9697 0.373291H74.0451Z" fill="#DCB102"/>
<path d="M84.1138 0.00672368C89.4646 0.00672368 91.4406 2.22696 91.4406 6.81176V19.3228C90.8729 19.5623 90.2569 19.665 89.6422 19.6225C89.0077 19.6338 88.3762 19.5323 87.7772 19.3228L87.0778 17.3468C86.2452 19.0675 84.3691 19.9889 81.7381 19.9889C78.2635 19.9889 76.0654 17.9352 76.0654 13.6501C76.0654 9.36503 78.6631 7.83307 83.259 7.83307C84.4678 7.83469 85.6756 7.89768 86.878 8.02179V7.06709C86.878 5.16878 86.3007 3.88104 83.5476 3.88104C81.9339 3.91232 80.3362 4.2086 78.8185 4.75804C78.355 4.41622 77.9972 3.95067 77.7861 3.41479C77.5256 2.80249 77.4262 2.13367 77.4975 1.47208C79.5629 0.487105 81.8256 -0.0140454 84.1138 0.00672368ZM83.7919 10.9081C81.9269 10.9081 80.8278 11.6741 80.8278 13.6501C80.8278 15.6261 81.8159 16.4698 83.4588 16.4698C86.0232 16.4698 86.7892 14.0941 86.7892 12.1514V11.1079C85.9122 10.9858 84.8465 10.9081 83.7919 10.9081Z" fill="#DCB102"/>
<path d="M99.3778 19.3229C98.5896 19.5378 97.7746 19.6387 96.9578 19.6226C96.2058 19.6551 95.454 19.5536 94.7375 19.3229L98.7118 0.661768C99.4885 0.447098 100.293 0.349812 101.099 0.373137C101.849 0.354147 102.598 0.451511 103.319 0.661768L101.776 7.87754H108.214L109.769 0.661768C110.538 0.465807 111.328 0.368813 112.122 0.373137C112.873 0.354147 113.622 0.451511 114.342 0.661768L110.424 19.3229C109.636 19.543 108.821 19.644 108.003 19.6226C107.252 19.6463 106.502 19.545 105.783 19.3229L107.426 11.552H101.021L99.3778 19.3229Z" fill="white"/>
<path d="M132.193 0.33983C132.945 0.295755 133.698 0.393673 134.413 0.628461L130.428 19.3229C129.777 19.5218 129.1 19.6228 128.419 19.6226C127.751 19.6291 127.086 19.5432 126.443 19.3673V17.7576C125.775 18.4765 124.964 19.046 124.06 19.4287C123.157 19.8113 122.183 19.9985 121.203 19.9778C117.107 19.9778 114.731 16.7585 116.307 9.28739C117.884 1.81629 121.247 0.00679434 125.344 0.00679434C126.173 -0.0382506 126.999 0.13734 127.738 0.515668C128.477 0.893997 129.103 1.46153 129.551 2.16043L130.106 0.595158C130.779 0.37786 131.487 0.291197 132.193 0.33983ZM125.821 3.7368C123.512 3.7368 121.947 4.75811 120.848 9.92016C119.749 15.0822 120.848 16.2478 123.19 16.2478C125.233 16.2478 126.776 14.6049 127.286 12.2958L128.241 7.85534C128.707 5.6462 127.797 3.7368 125.821 3.7368Z" fill="white"/>
</svg>
