<svg width="16" height="16" viewBox="0 0 16 16" fill="none" xmlns="http://www.w3.org/2000/svg">
<path d="M14.6915 1.96309C13.864 1.07356 12.7043 0.567422 11.4893 0.565546C10.2734 0.566953 9.11252 1.07282 8.28366 1.96252L8.00117 2.26102L7.71869 1.96252C6.07401 0.192395 3.30572 0.0907396 1.53562 1.73542C1.45719 1.80833 1.38143 1.88405 1.30852 1.96252C-0.436174 3.84439 -0.436174 6.75273 1.30852 8.6346L7.58604 15.2546C7.80322 15.4839 8.16515 15.4937 8.39443 15.2766C8.40193 15.2695 8.40924 15.2622 8.41634 15.2546L14.6916 8.6346C16.4361 6.75293 16.4361 3.84476 14.6915 1.96309ZM13.8641 7.84719H13.8636L8.00117 14.0304L2.13825 7.84719C0.805405 6.40927 0.805405 4.18729 2.13825 2.74937C3.34864 1.43749 5.39338 1.35524 6.70525 2.56562C6.76894 2.62439 6.83022 2.68567 6.88899 2.74937L7.58604 3.48474C7.81575 3.71298 8.18663 3.71298 8.41634 3.48474L9.11339 2.74993C10.3238 1.43806 12.3685 1.35581 13.6804 2.56619C13.7441 2.62496 13.8054 2.68624 13.8641 2.74993C15.2086 4.19013 15.2184 6.41617 13.8641 7.84719Z" fill="#DCB102"/>
</svg>
