<svg width="16" height="16" viewBox="0 0 16 16" fill="none" xmlns="http://www.w3.org/2000/svg">
<path d="M7.99992 0C5.83932 0 4.08154 1.75778 4.08154 3.91838C4.08154 6.07897 5.83932 7.83672 7.99992 7.83672C10.1605 7.83672 11.9183 6.07894 11.9183 3.91834C11.9183 1.75775 10.1605 0 7.99992 0ZM7.99992 6.85716C6.37948 6.85716 5.06114 5.53881 5.06114 3.91838C5.06114 2.29794 6.37948 0.979594 7.99992 0.979594C9.62036 0.979594 10.9387 2.29794 10.9387 3.91838C10.9387 5.53881 9.62036 6.85716 7.99992 6.85716Z" fill="#828282"/>
<path d="M7.99997 8.81631C4.30897 8.81631 1.30609 11.8192 1.30609 15.5102V16H14.6938V15.5102C14.6938 11.8192 11.691 8.81631 7.99997 8.81631ZM2.30647 15.0204C2.55575 12.098 5.01409 9.79591 7.99997 9.79591C10.9858 9.79591 13.4442 12.098 13.6935 15.0204H2.30647Z" fill="#828282"/>
</svg>
