<svg width="16" height="9" viewBox="0 0 16 9" fill="none" xmlns="http://www.w3.org/2000/svg">
<path d="M15.2401 4.40217C15.1091 4.23599 11.9871 0.333313 7.99989 0.333313C4.01264 0.333313 0.89058 4.23599 0.759697 4.40201C0.635602 4.55966 0.635602 4.77348 0.759697 4.93113C0.89058 5.0973 4.01264 8.99998 7.99989 8.99998C11.9871 8.99998 15.1091 5.09727 15.2401 4.93126C15.3644 4.77364 15.3644 4.55966 15.2401 4.40217ZM7.99989 8.10343C5.06286 8.10343 2.51907 5.51314 1.76606 4.66634C2.5181 3.81879 5.05656 1.22986 7.99989 1.22986C10.9368 1.22986 13.4804 3.8197 14.2337 4.66695C13.4817 5.51447 10.9432 8.10343 7.99989 8.10343Z" fill="#828282"/>
<path d="M7.99962 1.97687C6.39998 1.97687 5.09851 3.18348 5.09851 4.66654C5.09851 6.14959 6.39998 7.3562 7.99962 7.3562C9.59927 7.3562 10.9007 6.14959 10.9007 4.66654C10.9007 3.18348 9.59927 1.97687 7.99962 1.97687ZM7.99962 6.45963C6.93314 6.45963 6.06557 5.65527 6.06557 4.66654C6.06557 3.67781 6.93317 2.87344 7.99962 2.87344C9.06608 2.87344 9.93368 3.67781 9.93368 4.66654C9.93368 5.65527 9.06611 6.45963 7.99962 6.45963Z" fill="#828282"/>
</svg>
