<svg width="16" height="16" viewBox="0 0 16 16" fill="none" xmlns="http://www.w3.org/2000/svg">
<path d="M13.9052 0.137329C13.7222 -0.0457764 13.4253 -0.0457764 13.2423 0.137329L9.62965 3.75H1.4375C0.66211 3.75 0.03125 4.38086 0.03125 5.15625V11.7186C0.03125 12.4941 0.66211 13.1249 1.4375 13.1249H1.9375V15.5311C1.9375 15.7217 2.05286 15.8933 2.22925 15.9652C2.40821 16.0382 2.60999 15.9932 2.74134 15.859L5.4159 13.1249H10.875C11.6504 13.1249 12.2813 12.4941 12.2813 11.7186V6.40162L15.8939 2.78894C16.0769 2.60584 16.0769 2.30908 15.8939 2.12598L13.9052 0.137329ZM9.5962 7.76075L8.2704 6.43494L12.2479 2.45752L13.5737 3.78333L9.5962 7.76075ZM7.77101 7.26136L8.76979 8.26014L7.05787 8.97327L7.77101 7.26136ZM11.3438 11.7186C11.3438 11.9772 11.1334 12.1874 10.875 12.1874H5.21876C5.09266 12.1874 4.97181 12.2383 4.88367 12.3284L2.875 14.3817V12.6561C2.875 12.3973 2.66516 12.1874 2.40625 12.1874H1.4375C1.17908 12.1874 0.968751 11.9772 0.968751 11.7186V5.15625C0.968751 4.89771 1.17908 4.6875 1.4375 4.6875H8.69203L7.27601 6.10352C7.23695 6.14258 7.19825 6.19642 7.17249 6.26014L5.87501 9.37501H3.34375C3.08484 9.37501 2.875 9.58485 2.875 9.84376C2.875 10.1025 3.08484 10.3121 3.34375 10.3121H6.18726H6.18763C6.24793 10.3121 6.31263 10.2998 6.37183 10.2744L9.77101 8.85865C9.82765 8.83655 9.88478 8.7981 9.92775 8.75513L11.3438 7.33912V11.7186ZM14.2366 3.12036L12.9108 1.79456L13.5737 1.13171L14.8996 2.45752L14.2366 3.12036Z" fill="#DCB102"/>
</svg>
