<svg width="16" height="15" viewBox="0 0 16 15" fill="none" xmlns="http://www.w3.org/2000/svg">
<path d="M2.32892 14.088H1.1952L1.99688 13.2864C2.42913 12.8541 2.69906 12.2919 2.77162 11.682C1.64367 10.9418 0.818867 9.96794 0.377348 8.8511C-0.0638584 7.73511 -0.119303 6.50661 0.217026 5.29835C0.62057 3.84857 1.56707 2.52714 2.88211 1.57745C4.31113 0.545489 6.09011 0 8.02674 0C10.4664 0 12.5227 0.700927 13.9734 2.02695C15.2803 3.22159 16 4.83298 16 6.56434C16 7.40549 15.8287 8.22394 15.491 8.99696C15.1414 9.79688 14.6296 10.5091 13.9697 11.1139C12.5171 12.4452 10.462 13.1488 8.02671 13.1488C7.12267 13.1488 6.1793 13.0281 5.33706 12.8067C4.53983 13.6245 3.45953 14.088 2.32892 14.088ZM8.02674 0.939202C4.14349 0.939202 1.7607 3.25506 1.12182 5.55022C0.518103 7.71915 1.40806 9.76858 3.50248 11.0325L3.7365 11.1737L3.7293 11.4469C3.71502 11.9877 3.5861 12.5086 3.35534 12.9795C3.91726 12.7893 4.42716 12.4446 4.82644 11.9729L5.02499 11.7383L5.31943 11.8264C6.14571 12.0735 7.10717 12.2096 8.02674 12.2096C12.8596 12.2096 15.0608 9.28329 15.0608 6.56434C15.0608 5.09993 14.4496 3.73471 13.3397 2.72018C12.0651 1.55507 10.2279 0.939202 8.02674 0.939202Z" fill="#828282"/>
</svg>
