<svg width="16" height="16" viewBox="0 0 16 16" fill="none" xmlns="http://www.w3.org/2000/svg">
<path d="M15.7059 5.69565C15.5231 5.49042 15.2732 5.35694 15.0009 5.31904V5.31847L10.7486 4.73106L9.06591 0.710197C8.8202 0.121654 8.14391 -0.156263 7.5554 0.0894462C7.27484 0.206592 7.05176 0.429635 6.93465 0.710197L5.25191 4.73106L0.999634 5.31847C0.366094 5.40665 -0.0760076 5.99178 0.0121785 6.62532C0.0500777 6.89758 0.183562 7.14747 0.388794 7.33034L3.59258 10.1873L2.9343 14.6704C2.86299 15.1256 3.07207 15.5791 3.46456 15.8206C3.85152 16.068 4.34926 16.0588 4.72675 15.7971L8.00024 13.571L11.2737 15.7994C11.802 16.1579 12.5208 16.0203 12.8793 15.4921C13.0422 15.2521 13.109 14.9596 13.0662 14.6726L12.408 10.1878L15.6118 7.33088C16.0893 6.90535 16.1315 6.17321 15.7059 5.69565ZM11.4172 9.54216C11.2738 9.67022 11.2045 9.86172 11.2326 10.0519L11.9183 14.8515L8.32309 12.4071C8.12928 12.2754 7.87466 12.2754 7.68085 12.4071L4.06452 14.8367L4.7679 10.0496C4.79521 9.86021 4.72591 9.66975 4.58332 9.54219L1.15498 6.4521L5.73068 5.8207C5.93102 5.79308 6.1018 5.6616 6.17978 5.47502L8.00707 1.14276C8.00915 1.1453 8.01069 1.14821 8.01166 1.15133L9.82011 5.47274C9.89808 5.65933 10.0689 5.7908 10.2692 5.81842L14.8506 6.47781L11.4172 9.54216Z" fill="#DCB102"/>
</svg>
