<svg width="14" height="14" viewBox="0 0 14 14" fill="none" xmlns="http://www.w3.org/2000/svg">
<path d="M11.6667 4.03702H2.33337C1.22671 4.03702 0.333374 5.02961 0.333374 6.25924V10.7037H3.00004V13.6666H11V10.7037H13.6667V6.25924C13.6667 5.02961 12.7734 4.03702 11.6667 4.03702ZM9.66671 12.1852H4.33337V8.48146H9.66671V12.1852ZM11.6667 6.99998C11.3 6.99998 11 6.66665 11 6.25924C11 5.85183 11.3 5.5185 11.6667 5.5185C12.0334 5.5185 12.3334 5.85183 12.3334 6.25924C12.3334 6.66665 12.0334 6.99998 11.6667 6.99998ZM11 0.333313H3.00004V3.29628H11V0.333313Z" fill="#DCB102"/>
</svg>
