<svg width="16" height="16" viewBox="0 0 16 16" fill="none" xmlns="http://www.w3.org/2000/svg">
<path d="M13.3333 8C13.3333 7.28666 13.1867 6.58666 12.9067 5.93333C12.3733 4.64666 11.3533 3.62666 10.0667 3.09333C8.77333 2.53333 7.30666 2.52 5.99999 3.05333C5.37999 3.30666 4.81333 3.68 4.32666 4.14L3.42666 3.24666C3.30666 3.10666 3.11333 3.06666 2.94666 3.14666C2.77333 3.20666 2.65999 3.37333 2.66666 3.56V6.66666C2.67333 6.91333 2.86666 7.10666 3.11333 7.11333H6.21999C6.39999 7.12 6.56666 7.00666 6.62666 6.83333C6.71333 6.67333 6.67333 6.47333 6.53333 6.35333L5.58666 5.4C5.89999 5.09333 6.26666 4.84 6.66666 4.66666C7.09333 4.5 7.54666 4.41333 7.99999 4.42C8.47333 4.42 8.94666 4.51333 9.37999 4.7C10.2333 5.06 10.9133 5.74 11.2733 6.59333C11.6467 7.47333 11.6467 8.46666 11.2733 9.34666C10.9133 10.2 10.2333 10.88 9.37999 11.24C8.94666 11.4267 8.47333 11.52 7.99999 11.52C6.89999 11.5267 5.85999 11.0133 5.19333 10.14C5.15333 10.0933 5.09333 10.06 5.03333 10.06C4.96666 10.06 4.90666 10.08 4.85999 10.12L3.91333 11.1067C3.87333 11.1467 3.85333 11.1933 3.85333 11.2467C3.85333 11.3 3.86666 11.3533 3.89999 11.4C4.39333 12.0067 5.01999 12.4933 5.73333 12.8267C6.43999 13.16 7.21333 13.3333 7.99999 13.3333C8.71333 13.3333 9.41333 13.1867 10.0667 12.9067C11.3533 12.3733 12.3733 11.3533 12.9067 10.0667C13.1867 9.41333 13.3333 8.71333 13.3333 8Z" fill="#DCB102"/>
</svg>
