<svg width="8" height="14" viewBox="0 0 8 14" fill="none" xmlns="http://www.w3.org/2000/svg">
<path d="M6.90776 12.4892L6.71215 13.2888C6.12531 13.5204 5.65654 13.6967 5.30747 13.8179C4.95803 13.9395 4.55199 14 4.08937 14C3.37894 14 2.82635 13.826 2.43224 13.4803C2.03812 13.1332 1.841 12.6934 1.841 12.1599C1.841 11.9534 1.85531 11.741 1.88504 11.5245C1.91503 11.3078 1.96271 11.0638 2.02796 10.791L2.76135 8.1952C2.8266 7.94664 2.88206 7.71112 2.92648 7.48841C2.97152 7.26707 2.99323 7.06343 2.99323 6.88011C2.99323 6.54861 2.9246 6.31673 2.78795 6.18636C2.65131 6.05637 2.39058 5.99037 2.00349 5.99037C1.8139 5.99037 1.61904 6.02074 1.42041 6.07946C1.22091 6.13843 1.05039 6.1954 0.907227 6.24835L1.10334 5.44808C1.58378 5.25246 2.04302 5.08495 2.4823 4.94593C2.92158 4.80653 3.33665 4.73676 3.72926 4.73676C4.4348 4.73676 4.97923 4.90728 5.36155 5.24832C5.74387 5.58961 5.93497 6.03203 5.93497 6.57722C5.93497 6.69002 5.92242 6.88877 5.89544 7.17284C5.86909 7.45754 5.82003 7.7184 5.74851 7.95567L5.01825 10.5411C4.9584 10.7487 4.90457 10.9861 4.85777 11.2533C4.80946 11.5186 4.78638 11.7214 4.78638 11.8574C4.78638 12.2007 4.86292 12.4351 5.01637 12.5597C5.17096 12.6843 5.43721 12.7463 5.81539 12.7463C5.99293 12.7463 6.19495 12.7148 6.41942 12.6529C6.64327 12.5911 6.80651 12.5367 6.90776 12.4892ZM7.09297 1.63492C7.09297 2.08538 6.9232 2.47008 6.58203 2.7864C6.24175 3.10385 5.8317 3.2627 5.35201 3.2627C4.87082 3.2627 4.45977 3.10385 4.11559 2.7864C3.77205 2.46995 3.5999 2.08538 3.5999 1.63492C3.5999 1.18535 3.77205 0.800021 4.11559 0.479687C4.45914 0.159854 4.87095 0 5.35201 0C5.83158 0 6.24175 0.16023 6.58203 0.479687C6.92345 0.800021 7.09297 1.18548 7.09297 1.63492Z" fill="#37383A"/>
</svg>
