<svg width="14" height="14" viewBox="0 0 14 14" fill="none" xmlns="http://www.w3.org/2000/svg">
<path d="M12.4961 0.246286C11.6643 0.246286 10.9922 0.925204 10.9922 1.75019V9.62519C10.9922 10.1958 11.3142 10.6984 11.79 10.9525C12.7931 11.4886 14 10.752 14 9.62519V1.75019C14 0.920939 13.3253 0.246286 12.4961 0.246286Z" fill="#37383A"/>
<path d="M4.34766 2.63859V7.43769C4.34766 7.6641 4.16391 7.84785 3.9375 7.84785C3.71109 7.84785 3.52734 7.6641 3.52734 7.43769V2.65254H2.05078C0.918203 2.65254 0 3.57074 0 4.70332V6.67207C0 7.80464 0.918203 8.72285 2.05078 8.72285H3.60555L4.33043 12.1217C4.52348 13.0475 5.32875 13.7278 6.28387 13.7533C7.03172 13.7732 7.56355 13.1175 7.41863 12.4246L7.12223 11.0011C7.92832 10.7378 8.56106 10.09 8.80496 9.27738C9.27063 9.36242 9.72863 9.4666 10.1719 9.60058V1.78246C8.43336 2.3351 6.16509 2.59118 4.34766 2.63859ZM6.95352 10.1909C6.86875 9.78488 6.78508 9.38238 6.70195 8.98371C7.12797 9.0332 7.55754 9.08433 7.98438 9.14531C7.80773 9.6241 7.43012 10.0075 6.95352 10.1909Z" fill="#37383A"/>
</svg>
