<svg width="6" height="10" viewBox="0 0 6 10" fill="none" xmlns="http://www.w3.org/2000/svg">
<path d="M4.96001 2.555L3.11001 0.555C3.08501 0.525 3.04501 0.505 3.00501 0.5C2.96001 0.5 2.91501 0.52 2.88501 0.55L1.06501 2.55C1.01001 2.59 0.98501 2.665 1.00501 2.735C1.02501 2.8 1.09001 2.84 1.15501 2.835H2.32001V9.335C2.31501 9.425 2.38501 9.5 2.47501 9.5C2.48501 9.5 2.49501 9.5 2.50501 9.5H3.50501C3.59501 9.505 3.66501 9.435 3.67001 9.345C3.67001 9.34 3.67001 9.34 3.67001 9.335V2.835H4.83501C4.90001 2.835 4.96001 2.795 4.98501 2.735C5.01501 2.675 5.00501 2.605 4.96001 2.555Z" fill="#4C956C"/>
</svg>
