<svg width="24" height="24" viewBox="0 0 24 24" fill="none" xmlns="http://www.w3.org/2000/svg">
<path d="M24 12C24 18.6275 18.6275 24 12 24C5.3725 24 0 18.6275 0 12C0 5.3725 5.3725 0 12 0C18.6275 0 24 5.3725 24 12Z" fill="url(#paint0_linear)"/>
<path d="M15.4517 20.2969H8.54828C5.87659 20.2969 3.70312 18.1234 3.70312 15.4517V8.54828C3.70312 5.87659 5.87659 3.70312 8.54828 3.70312H15.4517C18.1234 3.70312 20.2969 5.87659 20.2969 8.54828V15.4517C20.2969 18.1234 18.1234 20.2969 15.4517 20.2969ZM8.54828 5.10938C6.65204 5.10938 5.10938 6.65204 5.10938 8.54828V15.4517C5.10938 17.348 6.65204 18.8906 8.54828 18.8906H15.4517C17.348 18.8906 18.8906 17.348 18.8906 15.4517V8.54828C18.8906 6.65204 17.348 5.10938 15.4517 5.10938H8.54828Z" fill="white"/>
<path d="M12 16.5C9.51874 16.5 7.5 14.4813 7.5 12C7.5 9.51874 9.51874 7.5 12 7.5C14.4813 7.5 16.5 9.51874 16.5 12C16.5 14.4813 14.4813 16.5 12 16.5ZM12 8.90625C10.294 8.90625 8.90625 10.294 8.90625 12C8.90625 13.706 10.294 15.0938 12 15.0938C13.706 15.0938 15.0938 13.706 15.0938 12C15.0938 10.294 13.706 8.90625 12 8.90625Z" fill="white"/>
<path d="M17.1483 7.49524C17.1483 7.85065 16.8601 8.13885 16.5047 8.13885C16.1493 8.13885 15.8611 7.85065 15.8611 7.49524C15.8611 7.13983 16.1493 6.85162 16.5047 6.85162C16.8601 6.85162 17.1483 7.13983 17.1483 7.49524Z" fill="white"/>
<defs>
<linearGradient id="paint0_linear" x1="0" y1="12" x2="24" y2="12" gradientUnits="userSpaceOnUse">
<stop stop-color="#00F38D"/>
<stop offset="1" stop-color="#009EFF"/>
</linearGradient>
</defs>
</svg>
