<svg width="14" height="12" viewBox="0 0 14 12" fill="none" xmlns="http://www.w3.org/2000/svg">
<path d="M11.8585 0.6521C11.8589 0.6521 11.8593 0.6521 11.8597 0.6521C11.9921 0.6521 12.1167 0.703716 12.2107 0.797521C12.3058 0.892363 12.3582 1.01865 12.3582 1.15308V8.66527C12.3582 8.94074 12.1332 9.1654 11.8566 9.16611C10.6904 9.16889 8.73676 9.41193 7.38898 10.8224V2.96065C7.38898 2.86727 7.41283 2.77954 7.45785 2.70695C8.56404 0.925501 10.6898 0.654834 11.8585 0.6521Z" fill="#DCB102"/>
<path d="M1.64196 8.66531V1.15308C1.64196 1.01865 1.69433 0.892363 1.78941 0.797521C1.88345 0.703716 2.00809 0.6521 2.14036 0.6521C2.14078 0.6521 2.1412 0.6521 2.14158 0.6521C3.31028 0.654881 5.43602 0.925548 6.54226 2.707C6.58728 2.77959 6.61108 2.86731 6.61108 2.96069V10.8224C5.26331 9.41193 3.30962 9.16889 2.14351 9.16611C1.86695 9.1654 1.64196 8.94074 1.64196 8.66531Z" fill="#DCB102"/>
<path d="M0.500749 2.38452H0.863996V8.66526C0.863996 9.36861 1.43705 9.94214 2.14149 9.94389C3.13059 9.94624 4.76148 10.1397 5.9165 11.2328C3.91888 10.7437 1.81303 11.0617 0.61289 11.3352C0.463038 11.3693 0.308188 11.334 0.188127 11.2383C0.0684905 11.1429 -0.000142097 11.0002 -0.000142097 10.8471V2.88541C-0.000189304 2.60923 0.224566 2.38452 0.500749 2.38452Z" fill="#DCB102"/>
<path d="M13.1359 8.66526V2.38452H13.4991C13.7752 2.38452 14 2.60923 14 2.88541V10.8469C14 11.0001 13.9314 11.1428 13.8117 11.2382C13.6918 11.3339 13.5371 11.3693 13.387 11.335C12.1868 11.0615 10.0809 10.7436 8.0834 11.2327C9.23838 10.1396 10.8693 9.9462 11.8584 9.94384C12.5628 9.94214 13.1359 9.36861 13.1359 8.66526Z" fill="#DCB102"/>
</svg>
